<?xml version="1.0" standalone="no"?>
<!DOCTYPE svg PUBLIC "-//W3C//DTD SVG 20010904//EN"
 "http://www.w3.org/TR/2001/REC-SVG-20010904/DTD/svg10.dtd">
<svg version="1.0" xmlns="http://www.w3.org/2000/svg"
 width="728.000000pt" height="724.000000pt" viewBox="0 0 728.000000 724.000000"
 preserveAspectRatio="xMidYMid meet">

<g transform="translate(0.000000,724.000000) scale(0.100000,-0.100000)"
fill="#000000" stroke="none">
<path d="M6070 4884 c0 -6 7 -19 16 -30 14 -18 14 -18 3 6 -14 31 -19 36 -19
24z"/>
<path d="M2116 4785 c-3 -9 -6 -22 -5 -28 0 -7 5 -1 10 12 5 13 8 26 5 28 -2
2 -6 -3 -10 -12z"/>
<path d="M1299 4773 c-13 -16 -12 -17 4 -4 16 13 21 21 13 21 -2 0 -10 -8 -17
-17z"/>
<path d="M1242 4645 c-17 -37 -14 -45 4 -12 9 16 14 31 11 33 -2 2 -9 -7 -15
-21z"/>
<path d="M6171 4665 c0 -5 6 -21 14 -35 8 -14 14 -20 14 -15 0 6 -6 21 -14 35
-8 14 -14 21 -14 15z"/>
<path d="M2081 4644 c0 -11 3 -14 6 -6 3 7 2 16 -1 19 -3 4 -6 -2 -5 -13z"/>
<path d="M3141 4614 c0 -11 3 -14 6 -6 3 7 2 16 -1 19 -3 4 -6 -2 -5 -13z"/>
<path d="M2072 4590 c0 -14 2 -19 5 -12 2 6 2 18 0 25 -3 6 -5 1 -5 -13z"/>
<path d="M6201 4595 c1 -19 18 -51 18 -35 0 8 -4 22 -9 30 -5 8 -9 11 -9 5z"/>
<path d="M3156 4565 c4 -16 10 -52 14 -80 7 -48 8 -49 8 -10 0 22 -6 58 -14
80 -9 27 -12 30 -8 10z"/>
<path d="M1205 4559 c-4 -6 -5 -12 -2 -15 2 -3 7 2 10 11 7 17 1 20 -8 4z"/>
<path d="M1161 4434 c-7 -20 -11 -38 -8 -40 3 -3 10 11 17 31 16 47 8 55 -9 9z"/>
<path d="M6251 4450 c0 -14 6 -38 14 -55 18 -40 18 -21 1 35 -10 32 -15 38
-15 20z"/>
<path d="M2050 4335 c-1 -71 -1 -134 0 -140 4 -14 2 -26 -5 -55 -5 -19 -4 -22
4 -10 8 12 11 8 11 -20 -1 -51 -22 -75 -66 -72 -46 3 -74 -6 -74 -24 0 -12
-49 -14 -320 -14 -313 0 -320 0 -320 20 0 18 -7 20 -84 20 -80 0 -84 -1 -90
-24 -3 -14 -4 -33 -1 -43 3 -11 1 -9 -6 5 -9 17 -9 28 -1 48 7 14 11 46 10 72
l-1 47 -8 -50 c-7 -50 -7 -49 -4 10 2 33 9 85 14 114 17 89 6 69 -18 -31 -89
-378 -102 -796 -36 -1114 l15 -69 -6 65 c-3 36 -6 93 -7 126 -2 53 0 60 15 56
18 -4 41 34 30 52 -3 5 0 6 6 2 7 -4 12 -16 12 -27 0 -19 13 -19 635 -19 417
0 635 -3 635 -10 0 -7 -223 -10 -650 -10 -641 0 -650 0 -647 -20 4 -28 15 -36
23 -16 6 15 61 16 641 16 549 0 636 2 649 15 10 9 29 14 54 12 27 -2 37 0 33
9 -3 7 -12 15 -21 17 -16 4 -16 5 0 6 20 1 62 -66 45 -72 -8 -2 -5 -10 7 -23
15 -14 20 -16 24 -5 3 9 12 5 29 -15 88 -103 113 -132 156 -177 83 -88 51 -40
-55 82 -119 136 -111 127 -204 251 -134 180 -263 404 -332 575 -56 139 -73
225 -81 405 l-8 165 -3 -130z m30 -296 c0 -6 -4 -7 -10 -4 -5 3 -10 11 -10 16
0 6 5 7 10 4 6 -3 10 -11 10 -16z m-1003 -51 c-2 -13 -4 -5 -4 17 -1 22 1 32
4 23 2 -10 2 -28 0 -40z m1042 -87 c11 -30 18 -57 15 -60 -2 -3 -7 5 -11 17
-3 12 -10 22 -15 22 -6 0 -8 -7 -4 -15 3 -8 1 -15 -4 -15 -13 0 -13 17 1 42
10 18 8 24 -12 40 -13 11 -19 17 -12 14 8 -5 11 4 8 31 -4 36 -4 36 4 8 5 -16
18 -54 30 -84z m-1039 15 c0 -26 -6 -18 -14 19 -5 22 -4 26 4 15 5 -8 10 -24
10 -34z m1050 -101 c11 -13 10 -14 -4 -9 -9 3 -16 10 -16 15 0 13 6 11 20 -6z
m44 -81 c3 -8 2 -12 -4 -9 -6 3 -10 10 -10 16 0 14 7 11 14 -7z m176 -259 c0
-1 -6 -7 -13 -13 -10 -8 -13 -6 -13 7 0 11 6 17 13 14 7 -3 13 -6 13 -8z m15
-35 c3 -5 1 -10 -4 -10 -6 0 -11 5 -11 10 0 6 2 10 4 10 3 0 8 -4 11 -10z
m-1302 -110 c-3 -11 -7 -20 -9 -20 -2 0 -4 9 -4 20 0 11 4 20 9 20 5 0 7 -9 4
-20z m1351 4 c3 -8 2 -12 -4 -9 -6 3 -10 10 -10 16 0 14 7 11 14 -7z m30 0 c3
-8 2 -12 -4 -9 -6 3 -10 10 -10 16 0 14 7 11 14 -7z m10 -33 c3 -4 -6 -6 -19
-3 -25 4 -35 -12 -12 -21 7 -3 5 -6 -5 -6 -12 -1 -18 6 -18 19 0 15 7 20 24
20 14 0 27 -4 30 -9z m96 -101 c0 -5 -4 -10 -10 -10 -5 0 -10 5 -10 10 0 6 5
10 10 10 6 0 10 -4 10 -10z"/>
<path d="M3181 4350 c0 -41 3 -80 7 -87 4 -7 6 20 4 60 -4 102 -10 115 -11 27z"/>
<path d="M1142 4360 c0 -14 2 -19 5 -12 2 6 2 18 0 25 -3 6 -5 1 -5 -13z"/>
<path d="M6286 4320 c3 -25 12 -59 19 -75 8 -17 16 -54 19 -82 2 -29 7 -57 11
-63 11 -17 -4 -60 -20 -60 -8 0 -19 8 -25 18 -10 15 -11 15 -6 0 3 -9 0 -19
-7 -22 -7 -2 -4 -5 6 -5 18 -1 25 -31 7 -31 -5 0 -11 -17 -11 -37 -1 -39 -3
-35 -14 30 -4 24 -11 37 -22 37 -9 0 -13 -6 -9 -15 5 -13 -168 -15 -1514 -15
l-1520 0 0 -29 c0 -16 -6 -31 -12 -34 -10 -3 -13 11 -13 52 0 49 -2 56 -18 53
-15 -3 -17 0 -8 17 13 24 14 42 2 22 -5 -7 -14 -12 -21 -9 -10 3 -9 8 2 19 18
17 48 116 47 151 0 12 -7 -1 -14 -29 -19 -68 -67 -163 -105 -206 -16 -19 -55
-52 -85 -72 -30 -21 -55 -43 -55 -50 0 -19 143 -263 215 -365 42 -60 75 -98
83 -95 7 3 10 0 7 -5 -3 -5 20 -38 52 -72 60 -66 73 -77 73 -59 0 6 -5 11 -12
11 -6 0 -9 3 -5 6 3 4 24 -8 47 -26 23 -18 39 -35 36 -38 -3 -3 2 -11 12 -19
15 -13 15 -13 -5 -3 -13 6 -23 16 -23 23 0 14 -39 41 -47 33 -7 -6 117 -123
193 -182 58 -45 75 -55 55 -31 -6 8 -7 18 -3 22 4 5 2 6 -3 2 -6 -3 -19 1 -30
9 -17 13 -18 16 -5 24 23 15 33 12 25 -7 -5 -14 -3 -15 6 -6 6 6 8 16 4 23 -6
10 -21 8 -64 -8 -9 -4 -12 -1 -7 7 4 6 3 10 -1 9 -9 -3 -83 56 -83 66 0 13 47
13 62 -1 24 -21 23 -4 -1 25 -22 25 -43 30 -35 7 4 -10 0 -15 -11 -15 -10 0
-13 5 -9 12 4 7 3 8 -4 4 -7 -4 -12 -1 -12 8 0 14 58 16 540 16 327 0 540 -4
540 -9 0 -5 9 -13 20 -16 11 -3 20 -11 20 -16 0 -6 -10 -3 -22 5 -12 9 -32 15
-43 15 -17 -1 -17 -2 -2 -6 9 -2 15 -9 12 -14 -6 -8 1 -10 45 -14 25 -1 161
-58 315 -130 50 -23 92 -42 95 -42 3 0 24 -12 47 -26 24 -15 45 -27 48 -27 3
0 23 -11 45 -25 23 -15 37 -19 34 -11 -3 7 -39 30 -81 51 -55 27 -72 40 -62
46 10 7 6 8 -12 4 -17 -4 -30 -1 -38 9 -8 9 -20 16 -28 16 -8 0 -34 11 -59 24
-34 18 -41 25 -27 28 15 3 15 5 -5 10 -12 3 -20 2 -16 -3 8 -14 -2 -11 -74 23
-37 18 -74 31 -82 31 -10 -1 -7 5 9 18 13 10 29 19 37 19 8 0 14 5 14 10 0 6
5 10 11 10 6 0 9 -6 6 -14 -5 -12 -1 -13 24 -4 16 5 26 14 23 19 -7 12 -74 12
-74 0 0 -5 -11 -11 -25 -13 -17 -4 -25 -1 -25 8 0 8 -9 14 -20 14 -11 0 -20
-5 -20 -11 0 -6 -10 -9 -22 -7 -13 2 -23 8 -23 13 0 14 1685 19 1699 5 7 -7
-203 -10 -637 -10 -430 0 -647 -3 -647 -10 0 -7 223 -10 665 -10 627 1 664 2
654 18 -7 12 -7 33 -1 67 9 47 10 48 12 15 2 -19 3 -42 3 -52 0 -21 24 -12 30
10 2 10 3 -3 2 -28 -1 -25 0 -35 2 -22 2 12 8 22 12 22 5 0 5 -19 0 -42 -4
-24 -8 -60 -9 -81 0 -25 -4 -36 -11 -31 -8 4 -9 0 -4 -15 6 -20 -10 -125 -23
-146 -4 -5 -7 -17 -9 -25 -6 -41 -26 -99 -33 -95 -5 3 -5 -5 -2 -17 15 -57
100 300 122 517 24 221 12 553 -26 750 -41 212 -83 372 -68 255z m-3156 -289
c0 -50 -62 -111 -81 -80 -9 16 -21 -5 -13 -24 7 -19 -7 -28 -35 -20 -22 6 -22
6 10 34 18 15 36 26 41 23 4 -3 8 -1 8 5 0 5 12 27 27 50 26 40 43 45 43 12z
m3218 -8 c1 -22 0 -25 -8 -13 -8 12 -10 8 -8 -15 2 -18 8 -29 16 -27 10 2 10
-2 2 -17 -5 -11 -10 -30 -9 -43 1 -23 1 -23 9 2 5 15 6 -1 3 -40 -7 -78 -18
-97 -19 -32 0 26 -4 78 -8 115 -5 48 -4 72 4 82 16 19 15 20 18 -12z m-3374
-121 c2 -4 -5 -14 -17 -22 -19 -12 -21 -11 -10 2 7 8 10 18 6 21 -3 4 -1 7 5
7 6 0 13 -4 16 -8z m173 1 c-9 -2 -14 -9 -11 -15 4 -7 2 -8 -5 -4 -15 10 -4
26 17 25 15 -1 15 -2 -1 -6z m-137 -93 c9 -16 8 -18 -5 -14 -8 4 -15 12 -15
20 0 20 7 17 20 -6z m3357 -2 c-3 -8 -6 -5 -6 6 -1 11 2 17 5 13 3 -3 4 -12 1
-19z m-3197 -288 c6 -11 8 -20 6 -20 -3 0 -10 9 -16 20 -6 11 -8 20 -6 20 3 0
10 -9 16 -20z m106 -127 c0 -12 -1 -21 -2 -20 -1 1 -2 5 -1 9 1 4 -6 13 -16
20 -18 13 -18 14 0 14 13 0 19 -7 19 -23z m79 -4 c11 -17 -1 -21 -15 -4 -8 9
-8 15 -2 15 6 0 14 -5 17 -11z m-35 -44 c19 -23 8 -26 -19 -4 -16 13 -18 19
-8 19 8 0 20 -7 27 -15z m3048 -16 c-3 -8 -7 -3 -11 10 -4 17 -3 21 5 13 5 -5
8 -16 6 -23z m-21 -11 c-3 -8 -6 -5 -6 6 -1 11 2 17 5 13 3 -3 4 -12 1 -19z
m-2910 -14 c4 -14 -15 -39 -24 -31 -4 5 -1 12 7 17 8 5 11 12 7 16 -4 4 -12 3
-18 -3 -6 -6 -19 -9 -28 -5 -13 5 -11 8 9 13 29 8 43 6 47 -7z m1093 -19 c-12
-15 -30 -12 -30 6 0 5 10 9 21 9 18 0 19 -2 9 -15z m93 -85 c-12 -11 -17 -12
-20 -2 -3 6 -12 12 -21 12 -10 1 -4 7 13 14 35 15 54 0 28 -24z"/>
<path d="M3093 4003 c-21 -27 -22 -43 -2 -43 6 0 7 5 4 10 -3 6 1 17 9 26 14
13 22 34 14 34 -2 0 -13 -12 -25 -27z"/>
<path d="M3010 3920 c0 -5 5 -10 10 -10 6 0 10 5 10 10 0 6 -4 10 -10 10 -5 0
-10 -4 -10 -10z"/>
<path d="M1122 4310 c0 -14 2 -19 5 -12 2 6 2 18 0 25 -3 6 -5 1 -5 -13z"/>
<path d="M6280 4220 c0 -5 5 -10 11 -10 5 0 7 5 4 10 -3 6 -8 10 -11 10 -2 0
-4 -4 -4 -10z"/>
<path d="M3180 4176 c0 -8 4 -17 9 -20 5 -4 7 3 4 14 -6 23 -13 26 -13 6z"/>
<path d="M3173 4131 c0 -11 5 -18 9 -15 4 3 5 11 1 19 -7 21 -12 19 -10 -4z"/>
<path d="M3186 4095 c-3 -9 -6 -22 -5 -28 0 -7 5 -1 10 12 5 13 8 26 5 28 -2
2 -6 -3 -10 -12z"/>
<path d="M3522 3243 c-18 -7 -4 -23 19 -23 12 0 19 5 17 12 -5 14 -18 18 -36
11z"/>
<path d="M3634 3241 c-10 -11 -2 -19 21 -20 14 -1 31 -2 38 -2 99 -6 668 4
665 12 -3 9 -715 19 -724 10z"/>
<path d="M4868 3243 c-31 -7 -19 -23 17 -23 19 0 35 2 35 5 0 9 -36 21 -52 18z"/>
<path d="M4403 3233 c4 -3 2 -12 -4 -19 -7 -9 -6 -12 8 -9 10 1 27 -5 38 -14
18 -15 19 -15 6 2 -10 12 -10 17 -2 17 8 0 7 5 -3 15 -8 8 -22 15 -32 15 -10
0 -14 -3 -11 -7z"/>
<path d="M2486 3214 c-9 -24 -7 -27 9 -10 17 17 19 26 6 26 -5 0 -12 -7 -15
-16z"/>
<path d="M6253 3206 c0 -14 33 -14 46 0 3 4 -1 5 -10 1 -9 -3 -21 -1 -26 4 -6
6 -10 4 -10 -5z"/>
<path d="M3475 3190 c3 -5 8 -10 11 -10 2 0 4 5 4 10 0 6 -5 10 -11 10 -5 0
-7 -4 -4 -10z"/>
<path d="M4500 3193 c0 -5 -16 -25 -34 -47 -22 -25 -38 -36 -47 -31 -9 6 -11
4 -6 -8 7 -17 -15 -41 -28 -29 -5 4 -5 1 -1 -5 4 -8 2 -13 -5 -13 -7 0 -9 -3
-6 -7 10 -10 -44 -64 -56 -56 -6 3 -7 1 -3 -5 3 -6 -8 -26 -26 -45 -92 -95
-139 -149 -108 -122 50 43 127 125 228 240 48 55 93 104 99 108 7 4 13 12 13
17 0 12 -20 14 -20 3z"/>
<path d="M4683 3193 c9 -2 17 -9 17 -14 0 -5 5 -9 11 -9 8 0 8 5 -1 15 -7 8
-20 14 -29 14 -13 -1 -13 -2 2 -6z"/>
<path d="M1102 3168 c-16 -16 -15 -29 1 -22 8 3 14 11 14 19 0 18 0 18 -15 3z"/>
<path d="M2490 3170 c0 -5 5 -10 10 -10 6 0 10 5 10 10 0 6 -4 10 -10 10 -5 0
-10 -4 -10 -10z"/>
<path d="M4768 3153 c7 -3 16 -2 19 1 4 3 -2 6 -13 5 -11 0 -14 -3 -6 -6z"/>
<path d="M4825 3150 c-3 -5 1 -10 10 -10 9 0 13 5 10 10 -3 6 -8 10 -10 10 -2
0 -7 -4 -10 -10z"/>
<path d="M4852 3133 c-10 -4 -10 -8 -1 -19 6 -8 16 -14 21 -14 6 0 6 6 -1 14
-9 11 -9 15 1 19 7 3 9 5 3 5 -5 0 -16 -2 -23 -5z"/>
<path d="M2580 3121 c0 -6 4 -13 10 -16 6 -3 7 1 4 9 -7 18 -14 21 -14 7z"/>
<path d="M1102 3085 c0 -16 2 -22 5 -12 2 9 2 23 0 30 -3 6 -5 -1 -5 -18z"/>
<path d="M2566 3097 c3 -10 9 -15 12 -12 3 3 0 11 -7 18 -10 9 -11 8 -5 -6z"/>
<path d="M4940 3080 c-9 -6 -10 -10 -3 -10 6 0 15 5 18 10 8 12 4 12 -15 0z"/>
<path d="M4985 3070 c-16 -7 -17 -9 -3 -9 9 -1 20 4 23 9 7 11 7 11 -20 0z"/>
<path d="M3629 3037 c15 -19 121 -90 186 -125 l40 -22 -30 25 c-16 14 -35 25
-41 25 -6 0 -19 9 -30 21 -10 12 -36 28 -56 36 -21 8 -38 18 -38 22 0 3 -10
12 -22 20 -21 13 -22 13 -9 -2z"/>
<path d="M2665 3020 c3 -5 8 -10 11 -10 2 0 4 5 4 10 0 6 -5 10 -11 10 -5 0
-7 -4 -4 -10z"/>
<path d="M1075 2998 c-3 -13 6 -63 19 -113 29 -110 33 -100 7 19 -11 49 -17
94 -14 102 3 8 2 14 -1 14 -3 0 -8 -10 -11 -22z"/>
<path d="M4245 2990 c-3 -5 -1 -10 4 -10 6 0 11 5 11 10 0 6 -2 10 -4 10 -3 0
-8 -4 -11 -10z"/>
<path d="M1102 2970 c0 -14 2 -19 5 -12 2 6 2 18 0 25 -3 6 -5 1 -5 -13z"/>
<path d="M5128 2983 c7 -3 16 -2 19 1 4 3 -2 6 -13 5 -11 0 -14 -3 -6 -6z"/>
<path d="M2790 2932 c0 -12 19 -26 26 -19 2 2 -2 10 -11 17 -9 8 -15 8 -15 2z"/>
<path d="M5155 2918 c53 -30 241 -153 248 -162 6 -7 7 -6 4 4 -2 8 -23 26 -48
40 -24 15 -44 33 -44 41 0 8 -9 13 -20 12 -11 -1 -22 2 -25 5 -10 13 -111 72
-123 72 -7 0 -3 -6 8 -12z"/>
<path d="M2850 2865 c33 -34 40 -39 40 -31 0 8 -58 66 -66 66 -4 0 7 -16 26
-35z"/>
<path d="M3860 2886 c0 -5 69 -46 78 -46 3 0 -9 11 -28 25 -31 23 -50 31 -50
21z"/>
<path d="M3950 2836 c0 -2 35 -20 77 -40 l77 -37 20 23 21 22 -21 -17 c-20
-17 -24 -16 -92 18 -70 34 -82 39 -82 31z"/>
<path d="M2932 2785 c48 -45 61 -45 17 0 -19 19 -38 35 -44 35 -5 0 7 -16 27
-35z"/>
<path d="M1124 2770 c2 -8 15 -46 27 -83 11 -37 23 -66 25 -64 6 6 -33 129
-47 147 -9 13 -10 13 -5 0z"/>
<path d="M6246 2755 c-3 -9 -6 -22 -5 -28 0 -7 5 -1 10 12 5 13 8 26 5 28 -2
2 -6 -3 -10 -12z"/>
<path d="M2990 2736 c0 -2 8 -10 18 -17 15 -13 16 -12 3 4 -13 16 -21 21 -21
13z"/>
<path d="M5403 2645 c0 -33 2 -45 4 -27 2 18 2 45 0 60 -2 15 -4 0 -4 -33z"/>
<path d="M3065 2663 c48 -45 73 -60 40 -24 -16 18 -39 37 -50 43 -12 6 -9 -1
10 -19z"/>
<path d="M6215 2669 c-4 -6 -5 -12 -2 -15 2 -3 7 2 10 11 7 17 1 20 -8 4z"/>
<path d="M3150 2593 c0 -5 24 -26 53 -48 28 -21 46 -31 38 -21 -21 26 -91 79
-91 69z"/>
<path d="M6176 2575 c-9 -26 -7 -32 5 -12 6 10 9 21 6 23 -2 3 -7 -2 -11 -11z"/>
<path d="M5391 2544 c0 -11 3 -14 6 -6 3 7 2 16 -1 19 -3 4 -6 -2 -5 -13z"/>
<path d="M1230 2474 c0 -6 7 -19 16 -30 14 -18 14 -18 3 6 -14 31 -19 36 -19
24z"/>
<path d="M6116 2445 c-9 -26 -7 -32 5 -12 6 10 9 21 6 23 -2 3 -7 -2 -11 -11z"/>
</g>
</svg>
